<svg width="20" height="20" viewBox="0 0 20 20" fill="none" xmlns="http://www.w3.org/2000/svg">
<rect x="0.5" y="0.5" width="19" height="19" rx="9.5" fill="white"/>
<rect x="0.5" y="0.5" width="19" height="19" rx="9.5" stroke="#E6E6E6"/>
<path d="M15 9.9819C15 8.68323 14.588 7.71723 13.6227 6.75257C13.4976 6.62756 13.328 6.55737 13.1511 6.55743C12.9743 6.55749 12.8047 6.62781 12.6797 6.7529C12.5547 6.87799 12.4845 7.04762 12.4845 7.22447C12.4846 7.40132 12.5549 7.57089 12.68 7.6959C13.3994 8.41457 13.6667 9.0339 13.6667 9.9819C13.668 10.4635 13.5738 10.9406 13.3895 11.3855C13.2051 11.8305 12.9343 12.2344 12.5927 12.5739C11.9234 13.2426 11.2074 13.5752 10.3074 13.6359L11.138 12.8046C11.1999 12.7427 11.249 12.6692 11.2825 12.5883C11.316 12.5074 11.3333 12.4208 11.3333 12.3332C11.3333 12.2457 11.316 12.159 11.2825 12.0781C11.249 11.9973 11.1999 11.9238 11.138 11.8619C11.0761 11.8 11.0026 11.7509 10.9218 11.7174C10.8409 11.6839 10.7542 11.6667 10.6667 11.6667C10.5791 11.6667 10.4925 11.6839 10.4116 11.7174C10.3307 11.7509 10.2572 11.8 10.1954 11.8619L7.72402 14.3332L10.1954 16.8046C10.2571 16.8667 10.3306 16.916 10.4114 16.9496C10.4923 16.9833 10.5791 17.0006 10.6667 17.0006C10.7543 17.0006 10.841 16.9833 10.9219 16.9496C11.0028 16.916 11.0762 16.8667 11.138 16.8046C11.263 16.6795 11.3332 16.51 11.3332 16.3332C11.3332 16.1565 11.263 15.9869 11.138 15.8619L10.2467 14.9712C11.5287 14.9166 12.608 14.4432 13.5354 13.5172C14.0011 13.0541 14.3704 12.5031 14.6218 11.8963C14.8733 11.2894 15.0018 10.6388 15 9.9819ZM6.33335 9.9999C6.33335 9.02057 6.71468 8.0999 7.40735 7.40723C8.08002 6.73457 8.80202 6.4019 9.71202 6.34457L8.86202 7.19457C8.76825 7.28764 8.70429 7.4065 8.67826 7.53602C8.65223 7.66555 8.66531 7.79989 8.71584 7.92196C8.76637 8.04403 8.85206 8.14831 8.96202 8.22155C9.07198 8.29478 9.20124 8.33366 9.33335 8.33323C9.51015 8.3332 9.67969 8.26293 9.80468 8.1379L12.276 5.66657L9.80468 3.19523C9.74279 3.13334 9.66931 3.08424 9.58843 3.05074C9.50756 3.01724 9.42089 3 9.33335 3C9.24582 3 9.15914 3.01724 9.07827 3.05074C8.9974 3.08424 8.92391 3.13334 8.86202 3.19523C8.80012 3.25713 8.75102 3.33061 8.71752 3.41148C8.68403 3.49235 8.66678 3.57903 8.66678 3.66657C8.66678 3.7541 8.68403 3.84078 8.71752 3.92165C8.75102 4.00252 8.80012 4.076 8.86202 4.1379L9.73602 5.0119C8.46002 5.06923 7.38602 5.54257 6.46468 6.46457C5.9989 6.92772 5.62961 7.47866 5.3782 8.08551C5.12678 8.69235 4.99824 9.34304 5.00002 9.9999C5.00002 11.2986 5.41202 12.2646 6.37735 13.2292C6.43916 13.2913 6.51264 13.3406 6.59355 13.3741C6.67446 13.4077 6.76122 13.425 6.84882 13.4249C6.93643 13.4249 7.02316 13.4075 7.10402 13.3738C7.18489 13.3401 7.25829 13.2907 7.32002 13.2286C7.382 13.1667 7.43117 13.0931 7.46472 13.0122C7.49827 12.9313 7.51554 12.8445 7.51554 12.7569C7.51554 12.6693 7.49827 12.5825 7.46472 12.5016C7.43117 12.4207 7.382 12.3471 7.32002 12.2852C6.60068 11.5672 6.33335 10.9479 6.33335 9.9999Z" fill="#FF6000"/>
</svg>
